inDegrees=yes
name=ik_S47_A01_T01
DataType=double
version=3
OpenSimVersion=4.3-2021-08-27-4bc7ad9
endheader
time	pelvis_tilt	pelvis_list	pelvis_rotation	pelvis_tx	pelvis_ty	pelvis_tz	hip_flexion_r	hip_adduction_r	hip_rotation_r	knee_angle_r	knee_angle_r_beta	ankle_angle_r	subtalar_angle_r	mtp_angle_r	hip_flexion_l	hip_adduction_l	hip_rotation_l	knee_angle_l	knee_angle_l_beta	ankle_angle_l	subtalar_angle_l	mtp_angle_l	lumbar_extension	lumbar_bending	lumbar_rotation	arm_flex_r	arm_add_r	arm_rot_r	elbow_flex_r	pro_sup_r	wrist_flex_r	wrist_dev_r	arm_flex_l	arm_add_l	arm_rot_l	elbow_flex_l	pro_sup_l	wrist_flex_l	wrist_dev_l
13.3799999999998	-5.220822124143205	3.247550610272256	92.6975202651107	0	0.9399999999999999	0	16.56936751162074	-9.082741531338732	-14.12242328634294	2.389932999625662	0.0417121997455322	0	0	0	-7.747469744972018	6.259464867715896	1.888032327007294	1.858823326351036	0.03244258725769865	0	0	0	0	0	0	33.10496394222358	-33.10496394222358	4.495111553281705	78.15330826528644	85.50488869782542	0	0	33.10496394222358	-33.10496394222358	4.495111553281705	78.15330826528644	85.50488869773089	0	0
13.3999999999998	-5.821253838269774	2.994204194559245	92.9800564700197	0	0.9399999999999999	0	16.81908996390237	-9.715187730298222	-14.13921713012962	4.01978386225754	0.07015846361492829	0	0	0	-8.116651253419571	6.796028989857649	2.342611206752876	2.453303774687972	0.04281822841991022	0	0	0	0	0	0	33.10823602556284	-33.10823602556284	4.495388621421744	78.15708478260146	85.50461162969941	0	0	33.10823602556284	-33.10823602556284	4.495388621421744	78.15708478260146	85.50461162960494	0	0
13.4199999999998	-6.330302733263756	2.978074606386474	93.31222560991526	0	0.9399999999999999	0	16.21625080037866	-8.899310955343729	-13.66384116479018	4.356373836605357	0.07603306689650095	0	0	0	-8.677280669628095	7.157737688479686	2.664660625509019	3.291293765646823	0.0574439128608997	0	0	0	0	0	0	33.11217880617135	-33.11217880617135	4.4957229869218	78.16164234828341	85.5042772642163	0	0	33.11217880617135	-33.11217880617135	4.4957229869218	78.16164234828341	85.50427726412191	0	0
13.4399999999998	-6.321379062838321	3.012561208541356	93.47853338886323	0	0.9399999999999999	0	16.18267768241535	-8.989258712374705	-13.62699917448819	5.103500489718526	0.08907288692273128	0	0	0	-9.184751945946815	6.926654492404237	2.746192657244262	4.284360996184307	0.07477620572744037	0	0	0	0	0	0	33.11457180115862	-33.11457180115862	4.495925517110058	78.16440284645017	85.50407473403833	0	0	33.11457180115862	-33.11457180115862	4.495925517110058	78.16440284645017	85.50407473394397	0	0
13.4599999999998	-6.012840429349831	3.109950201666627	93.80286612072294	0	0.9399999999999999	0	13.53939852813863	-9.330593239445856	-16.03023481015533	6.382539697430253	0.1113963323594006	0	0	0	-9.312766112500784	6.449550607649562	2.976862598063898	5.747391937895719	0.1003109127188578	0	0	0	0	0	0	33.16930203987839	-33.16930203987839	4.499871769326958	78.21804938884128	85.50012848201646	0	0	33.16930203987839	-33.16930203987839	4.499871769326958	78.21804938884128	85.50012848192281	0	0
13.4799999999998	-5.271876725273088	3.141845759124136	93.77642667935217	0	0.9399999999999999	0	13.46122263556845	-9.036758753948103	-17.5998634127792	8.507593677199049	0.148485521088975	0	0	0	-9.629959521919565	5.836299601482207	3.651091597335868	6.974136304020217	0.121721640988021	0	0	0	0	0	0	33.17213913060914	-33.17213913060914	4.500111764530207	78.22132032702036	85.49988848682536	0	0	33.17213913060914	-33.17213913060914	4.500111764530207	78.22132032702036	85.49988848673172	0	0
13.4999999999998	-4.291220130654511	3.1136300128493	93.3447482774332	0	0.9399999999999999	0	15.04089978284633	-7.692150772578692	-15.00209901786167	10.05723396590724	0.1755318463484885	0	0	0	-9.516762775043425	4.775902664003575	3.063471476474723	8.667807410720609	0.1512817782458391	0	0	0	0	0	0	33.24786121783705	-33.24786121783705	4.505569844173819	78.29551881370845	85.49443040745145	0	0	33.24786121783705	-33.24786121783705	4.505569844173819	78.29551881370845	85.49443040735886	0	0
13.5199999999998	-3.593775642240471	3.054174707348099	92.9070028925813	0	0.9399999999999999	0	16.90432013385918	-5.499014864736613	-12.18341244658001	12.55771629416192	0.2191734958644663	0	0	0	-9.055109263940913	3.501750329132181	2.561336829106964	12.89376164517511	0.2250385936756665	0	0	0	0	0	0	33.36566141832107	-33.36566141832107	4.513994096580748	78.41002430518174	85.48600615546025	0	0	33.36566141832107	-33.36566141832107	4.513994096580748	78.41002430518174	85.48600615536925	0	0
13.5399999999998	-3.376807469611847	3.019976881783422	92.73115644621254	0	0.9399999999999999	0	17.3839097918383	-4.606305248149485	-9.519445132406307	13.75404632095639	0.2400533937725018	0	0	0	-8.374614276525682	2.746424111762651	1.576867672352548	13.70352681729173	0.2391716620970802	0	0	0	0	0	0	33.40398135643284	-33.40398135643284	4.516773586060343	78.44781254096061	85.48322666611817	0	0	33.40398135643284	-33.40398135643284	4.516773586060343	78.44781254096061	85.48322666602768	0	0
13.5599999999998	-3.266172177167854	2.996214776186003	92.61133131412784	0	0.9399999999999999	0	15.90797249511045	-5.166190184735958	-11.38025772286681	13.93303150442168	0.2431772745362571	0	0	0	-7.488533167737486	1.341600652200949	-0.2122158237028554	19.85059106881232	0.3464581726177552	0	0	0	0	0	0	33.40839256654073	-33.40839256654073	4.517139653537727	78.45279924727215	85.48286059865927	0	0	33.40839256654073	-33.40839256654073	4.517139653537727	78.45279924727215	85.48286059856882	0	0
13.5799999999998	-3.491294881373187	3.091385427380218	93.17302146206642	0	0.9399999999999999	0	13.07933845956193	-5.741752833826681	-13.99807125358995	12.87351132972384	0.2246851589964743	0	0	0	-6.420705104797324	0.1709389968653541	-1.614860180980815	24.12029460912153	0.4209785574802093	0	0	0	0	0	0	33.53660220431355	-33.53660220431355	4.526129879753784	78.57495587749879	85.4738703728852	0	0	33.53660220431355	-33.53660220431355	4.526129879753784	78.57495587749879	85.4738703727964	0	0
13.5999999999998	-3.705209900369959	3.338833539311469	94.14719557759162	0	0.9399999999999999	0	10.60650858894126	-5.266576860495241	-14.95827481126848	11.57302698243901	0.2019874252657047	0	0	0	-4.985730963091478	-0.6899485589979102	-2.113555968040355	26.00615734468047	0.4538930714563801	0	0	0	0	0	0	33.57838100012511	-33.57838100012511	4.529080923884368	78.61505881936519	85.47091932889994	0	0	33.57838100012511	-33.57838100012511	4.529080923884368	78.61505881936519	85.47091932881163	0	0
13.6199999999998	-3.529133503850606	3.67149510766412	94.96192143085243	0	0.9399999999999999	0	9.335227679459685	-4.56413946285773	-15.36652643455765	11.28196213000901	0.1969073852539698	0	0	0	-3.23234511575496	-1.679849182480893	-1.847065382959219	30.90825483210942	0.5394508128657566	0	0	0	0	0	0	33.67603375830411	-33.67603375830411	4.535928584956572	78.70810368305777	85.46407166816444	0	0	33.67603375830411	-33.67603375830411	4.535928584956572	78.70810368305777	85.46407166807747	0	0
13.6399999999998	-2.879199116702167	3.987899250317118	95.38490887322934	0	0.9399999999999999	0	8.226213058127401	-4.665208722277811	-15.86218375588455	11.46273656616383	0.2000624943683076	0	0	0	-1.448506881506227	-2.547863451806258	-1.980828647166617	32.9279398185294	0.5747009657318821	0	0	0	0	0	0	33.74930242057984	-33.74930242057984	4.541025170687396	78.77734655055237	85.45897508268385	0	0	33.74930242057984	-33.74930242057984	4.541025170687396	78.77734655055237	85.4589750825978	0	0
13.6599999999998	-1.920699187269069	4.240400631900867	95.33575891974478	0	0.9399999999999999	0	7.425347217398706	-4.236163323407485	-16.18078915482501	11.68367348608741	0.2039185710601892	0	0	0	0.2572152670206397	-4.057178310981543	-2.58929489614905	40.63287366517388	0.7091774300041801	0	0	0	0	0	0	33.75544302098599	-33.75544302098599	4.541520111954721	78.78408426135255	85.45848014144146	0	0	33.75544302098599	-33.75544302098599	4.541520111954721	78.78408426135255	85.45848014135552	0	0
13.6799999999998	-0.9065014768640803	4.500423650661904	95.1185680197617	0	0.9399999999999999	0	6.591833571982276	-2.706686141827165	-15.48022899059195	11.35290052732282	0.1981454938531836	0	0	0	1.850189427269019	-5.140210535129462	-2.960271791371501	42.38727012155613	0.7397974245533715	0	0	0	0	0	0	33.8019924576692	-33.8019924576692	4.544776453740905	78.82832845572263	85.45522379981531	0	0	33.8019924576692	-33.8019924576692	4.544776453740905	78.82832845572263	85.45522379972998	0	0
